<svg xmlns="http://www.w3.org/2000/svg" width="1280" height="720" viewBox="0 0 1280 720"><title>lobby</title><defs>
<radialGradient id="coral" cx=".28" cy=".18" r=".95"><stop stop-color="#FFCF97"/><stop offset=".6" stop-color="#FC8464"/><stop offset="1" stop-color="#CD4A63"/></radialGradient>
<radialGradient id="mint" cx=".3" cy=".2" r=".95"><stop stop-color="#DCF7BA"/><stop offset=".65" stop-color="#89D6BE"/><stop offset="1" stop-color="#42A69D"/></radialGradient>
<radialGradient id="gold" cx=".3" cy=".2" r=".95"><stop stop-color="#FFF0B3"/><stop offset=".65" stop-color="#FFD477"/><stop offset="1" stop-color="#DF9952"/></radialGradient>
</defs><rect x="0" y="0" width="1280" height="720" rx="0" fill="#19172F" stroke="none" stroke-width="1" /><path d="M780 0 Q510 250 1280 620 L1280 0Z" fill="#272341"/><path d="M0 630 Q600 500 1280 610 V720 H0Z" fill="#272341" opacity=".4"/><path d="M54 351 Q56 358 63 360 Q56 362 54 369 Q52 362 45 360 Q52 358 54 351Z" fill="#383253"/><path d="M732 101 Q734 107 740 109 Q734 111 732 117 Q730 111 724 109 Q730 107 732 101Z" fill="#383253"/><path d="M1190 171 Q1192 182 1203 184 Q1192 186 1190 197 Q1188 186 1177 184 Q1188 182 1190 171Z" fill="#383253"/><path d="M598 538 Q600 544 606 546 Q600 548 598 554 Q596 548 590 546 Q596 544 598 538Z" fill="#383253"/><path d="M85 648 Q87 655 94 657 Q87 659 85 666 Q83 659 76 657 Q83 655 85 648Z" fill="#383253"/><circle cx="67" cy="43" r="19" fill="#FF8665" /><text x="67" y="50" font-family="Arial, sans-serif" font-size="22" font-weight="900" fill="#24192E" text-anchor="middle" >T</text><text x="97" y="51" font-family="Arial, sans-serif" font-size="27" font-weight="900" fill="#FFF9EF" text-anchor="start" >tambola</text><text x="98" y="69" font-family="Arial, sans-serif" font-size="8" font-weight="700" fill="#B8AECF" text-anchor="start" >T O G E T H E R</text><g id="Your-profile" data-action="profile" role="button" tabindex="0" aria-label="Your profile"><circle cx="897" cy="41" r="22" fill="#9FE2CB" /><circle cx="891.94" cy="39.9" r="2.5" fill="#25323D" /><circle cx="902.06" cy="39.9" r="2.5" fill="#25323D" /><path d="M891.72 46.28 Q897 50.46 902.28 46.28" fill="none" stroke="#25323D" stroke-width="3" stroke-linecap="round"/><text x="897" y="87" font-family="Arial, sans-serif" font-size="14" font-weight="700" fill="#B8AECF" text-anchor="middle" ></text></g><g id="Wallet" data-action="profile" role="button" tabindex="0" aria-label="Wallet"><rect x="942" y="20" width="188" height="36" rx="18" fill="#383253" stroke="none" stroke-width="1" /><text x="1036.0" y="44" font-family="Arial, sans-serif" font-size="15" font-weight="700" fill="#FFDA7B" text-anchor="middle" >1,500  coins</text></g><g id="Sound" data-action="sound" role="button" tabindex="0" aria-label="Sound"><rect x="1150" y="20" width="48" height="40" rx="15" fill="#383253" stroke="none" stroke-width="1" /><text x="1174" y="47" font-family="Arial, sans-serif" font-size="27" font-weight="600" fill="#FFF9EF" text-anchor="middle" >♪</text></g><g id="Settings" data-action="settings" role="button" tabindex="0" aria-label="Settings"><rect x="1212" y="20" width="40" height="40" rx="15" fill="#383253" stroke="none" stroke-width="1" /><text x="1232" y="47" font-family="Arial, sans-serif" font-size="24" font-weight="900" fill="#FFF9EF" text-anchor="middle" >···</text></g><text x="56" y="124" font-family="Arial, sans-serif" font-size="20" font-weight="600" fill="#B8AECF" text-anchor="start" >Hey, Player 07</text><text x="54" y="209" font-family="Arial, sans-serif" font-size="65" font-weight="900" fill="#FFF9EF" text-anchor="start" >Make your</text><text x="54" y="281" font-family="Arial, sans-serif" font-size="65" font-weight="900" fill="#FFDA7B" text-anchor="start" >next call count.</text><rect x="58" y="318" width="142" height="36" rx="18" fill="#383253" stroke="none" stroke-width="1" /><text x="129.0" y="342" font-family="Arial, sans-serif" font-size="15" font-weight="700" fill="#9FE2CB" text-anchor="middle" >QUICK PLAY</text><text x="216" y="343" font-family="Arial, sans-serif" font-size="19" font-weight="500" fill="#B8AECF" text-anchor="start" >5s calls  ·  6–8 prizes</text><g transform="translate(140 426) rotate(-8) scale(1.05)"><rect x="0" y="8" width="286" height="154" rx="19" fill="#050512" stroke="none" stroke-width="1" opacity=".18"/><rect x="0" y="0" width="286" height="154" rx="19" fill="#FFF4DA" stroke="none" stroke-width="1" /><rect x="0" y="0" width="286" height="34" rx="16" fill="#FBD276" stroke="none" stroke-width="1" /><text x="22" y="24" font-family="Arial, sans-serif" font-size="13" font-weight="800" fill="#775C31" text-anchor="start" >YOUR LUCKY TICKET</text><rect x="18" y="45" width="36" height="26" rx="5" fill="#FFF9EF" stroke="none" stroke-width="1" /><text x="36" y="64" font-family="Arial, sans-serif" font-size="14" font-weight="700" fill="#554A42" text-anchor="middle" >3</text><rect x="60" y="45" width="36" height="26" rx="5" fill="#E7DCC4" stroke="none" stroke-width="1" /><rect x="102" y="45" width="36" height="26" rx="5" fill="#FFF9EF" stroke="none" stroke-width="1" /><text x="120" y="64" font-family="Arial, sans-serif" font-size="14" font-weight="700" fill="#554A42" text-anchor="middle" >22</text><rect x="144" y="45" width="36" height="26" rx="5" fill="#FFF9EF" stroke="none" stroke-width="1" /><text x="162" y="64" font-family="Arial, sans-serif" font-size="14" font-weight="700" fill="#554A42" text-anchor="middle" >31</text><rect x="186" y="45" width="36" height="26" rx="5" fill="#E7DCC4" stroke="none" stroke-width="1" /><rect x="228" y="45" width="36" height="26" rx="5" fill="#FFF9EF" stroke="none" stroke-width="1" /><text x="246" y="64" font-family="Arial, sans-serif" font-size="14" font-weight="700" fill="#554A42" text-anchor="middle" >57</text><rect x="18" y="76" width="36" height="26" rx="5" fill="#E7DCC4" stroke="none" stroke-width="1" /><rect x="60" y="76" width="36" height="26" rx="5" fill="#FFF9EF" stroke="none" stroke-width="1" /><text x="78" y="95" font-family="Arial, sans-serif" font-size="14" font-weight="700" fill="#554A42" text-anchor="middle" >45</text><rect x="102" y="76" width="36" height="26" rx="5" fill="#FFF9EF" stroke="none" stroke-width="1" /><text x="120" y="95" font-family="Arial, sans-serif" font-size="14" font-weight="700" fill="#554A42" text-anchor="middle" >57</text><rect x="144" y="76" width="36" height="26" rx="5" fill="#E7DCC4" stroke="none" stroke-width="1" /><rect x="186" y="76" width="36" height="26" rx="5" fill="#FFF9EF" stroke="none" stroke-width="1" /><text x="204" y="95" font-family="Arial, sans-serif" font-size="14" font-weight="700" fill="#554A42" text-anchor="middle" >72</text><rect x="228" y="76" width="36" height="26" rx="5" fill="#FFF9EF" stroke="none" stroke-width="1" /><text x="246" y="95" font-family="Arial, sans-serif" font-size="14" font-weight="700" fill="#554A42" text-anchor="middle" >88</text><rect x="18" y="107" width="36" height="26" rx="5" fill="#FFF9EF" stroke="none" stroke-width="1" /><text x="36" y="126" font-family="Arial, sans-serif" font-size="14" font-weight="700" fill="#554A42" text-anchor="middle" >61</text><rect x="60" y="107" width="36" height="26" rx="5" fill="#FFF9EF" stroke="none" stroke-width="1" /><text x="78" y="126" font-family="Arial, sans-serif" font-size="14" font-weight="700" fill="#554A42" text-anchor="middle" >72</text><rect x="102" y="107" width="36" height="26" rx="5" fill="#E7DCC4" stroke="none" stroke-width="1" /><rect x="144" y="107" width="36" height="26" rx="5" fill="#FFF9EF" stroke="none" stroke-width="1" /><text x="162" y="126" font-family="Arial, sans-serif" font-size="14" font-weight="700" fill="#554A42" text-anchor="middle" >3</text><rect x="186" y="107" width="36" height="26" rx="5" fill="#FFF9EF" stroke="none" stroke-width="1" /><text x="204" y="126" font-family="Arial, sans-serif" font-size="14" font-weight="700" fill="#554A42" text-anchor="middle" >12</text><rect x="228" y="107" width="36" height="26" rx="5" fill="#E7DCC4" stroke="none" stroke-width="1" /></g><g transform="rotate(11 416 422)" class="float-ball"><ellipse cx="421" cy="517" rx="56.98" ry="14.63" fill="#060515" opacity=".18"/><circle cx="416" cy="422" r="77" fill="url(#coral)" /><circle cx="407.53" cy="415.84" r="48.51" fill="#FFF5E6" /><text x="407.53" y="435.86" font-family="Arial, sans-serif" font-size="56" font-weight="900" fill="#34243D" text-anchor="middle" >66</text><ellipse cx="392.9" cy="370.40999999999997" rx="26.180000000000003" ry="10.01" fill="#FFFFFF" opacity=".45" transform="rotate(-28 392.9 370.40999999999997)"/></g><g transform="rotate(-8 85 529)" class="float-ball"><ellipse cx="90" cy="593" rx="34.04" ry="8.74" fill="#060515" opacity=".18"/><circle cx="85" cy="529" r="46" fill="url(#mint)" /><circle cx="79.94" cy="525.32" r="28.98" fill="#FFF5E6" /><text x="79.94" y="537.28" font-family="Arial, sans-serif" font-size="34" font-weight="900" fill="#34243D" text-anchor="middle" >5</text><ellipse cx="71.2" cy="498.18" rx="15.64" ry="5.98" fill="#FFFFFF" opacity=".45" transform="rotate(-28 71.2 498.18)"/></g><path d="M459 548 Q461 563 476 565 Q461 567 459 582 Q457 567 442 565 Q457 563 459 548Z" fill="#FFDA7B"/><rect x="639" y="124" width="584" height="515" rx="34" fill="#272341" stroke="#383253" stroke-width="1" /><text x="681" y="179" font-family="Arial, sans-serif" font-size="33" font-weight="900" fill="#FFF9EF" text-anchor="start" >Your tickets</text><text x="1181" y="177" font-family="Arial, sans-serif" font-size="17" font-weight="600" fill="#B8AECF" text-anchor="end" >100 coins each</text><text x="681" y="218" font-family="Arial, sans-serif" font-size="19" font-weight="500" fill="#B8AECF" text-anchor="start" >Pick your hand. We’ll find your table.</text><g id="1-tickets" data-action="tickets-1" role="button" tabindex="0" aria-label="1 tickets"><rect x="680" y="257" width="72" height="100" rx="17" fill="#383253" stroke="none" stroke-width="1" /><circle cx="680" cy="299" r="7" fill="#272341" /><circle cx="752" cy="299" r="7" fill="#272341" /><text x="716" y="319" font-family="Arial, sans-serif" font-size="38" font-weight="900" fill="#FFF9EF" text-anchor="middle" >1</text></g><g id="2-tickets" data-action="tickets-2" role="button" tabindex="0" aria-label="2 tickets"><rect x="765" y="257" width="72" height="100" rx="17" fill="#383253" stroke="none" stroke-width="1" /><circle cx="765" cy="299" r="7" fill="#272341" /><circle cx="837" cy="299" r="7" fill="#272341" /><text x="801" y="319" font-family="Arial, sans-serif" font-size="38" font-weight="900" fill="#FFF9EF" text-anchor="middle" >2</text></g><g id="3-tickets" data-action="tickets-3" role="button" tabindex="0" aria-label="3 tickets"><rect x="850" y="257" width="72" height="100" rx="17" fill="#FF8665" stroke="none" stroke-width="1" /><circle cx="850" cy="299" r="7" fill="#272341" /><circle cx="922" cy="299" r="7" fill="#272341" /><text x="886" y="319" font-family="Arial, sans-serif" font-size="38" font-weight="900" fill="#24192E" text-anchor="middle" >3</text></g><g id="4-tickets" data-action="tickets-4" role="button" tabindex="0" aria-label="4 tickets"><rect x="935" y="257" width="72" height="100" rx="17" fill="#383253" stroke="none" stroke-width="1" /><circle cx="935" cy="299" r="7" fill="#272341" /><circle cx="1007" cy="299" r="7" fill="#272341" /><text x="971" y="319" font-family="Arial, sans-serif" font-size="38" font-weight="900" fill="#FFF9EF" text-anchor="middle" >4</text></g><g id="5-tickets" data-action="tickets-5" role="button" tabindex="0" aria-label="5 tickets"><rect x="1020" y="257" width="72" height="100" rx="17" fill="#383253" stroke="none" stroke-width="1" /><circle cx="1020" cy="299" r="7" fill="#272341" /><circle cx="1092" cy="299" r="7" fill="#272341" /><text x="1056" y="319" font-family="Arial, sans-serif" font-size="38" font-weight="900" fill="#FFF9EF" text-anchor="middle" >5</text></g><g id="6-tickets" data-action="tickets-6" role="button" tabindex="0" aria-label="6 tickets"><rect x="1105" y="257" width="72" height="100" rx="17" fill="#383253" stroke="none" stroke-width="1" /><circle cx="1105" cy="299" r="7" fill="#272341" /><circle cx="1177" cy="299" r="7" fill="#272341" /><text x="1141" y="319" font-family="Arial, sans-serif" font-size="38" font-weight="900" fill="#FFF9EF" text-anchor="middle" >6</text></g><text x="681" y="403" font-family="Arial, sans-serif" font-size="22" font-weight="700" fill="#FFF9EF" text-anchor="start" id="ticket-count-label">3 tickets</text><text x="1177" y="403" font-family="Arial, sans-serif" font-size="24" font-weight="800" fill="#FFDA7B" text-anchor="end" id="ticket-cost-label">300 coins</text><g id="PLAY--·--300" data-action="ready" role="button" tabindex="0" aria-label="PLAY  ·  300"><rect x="680" y="441" width="501" height="64" rx="21" fill="#B64A42" stroke="none" stroke-width="1" /><rect x="680" y="434" width="501" height="64" rx="21" fill="#FF8665" stroke="none" stroke-width="1" /><text x="930.5" y="475" font-family="Arial, sans-serif" font-size="24" font-weight="900" fill="#24192E" text-anchor="middle" >PLAY  ·  300</text></g><text x="930.5" y="529" font-family="Arial, sans-serif" font-size="16" font-weight="500" fill="#B8AECF" text-anchor="middle" >Coins are free. Your wins stay in your wallet.</text><text x="681" y="591" font-family="Arial, sans-serif" font-size="12" font-weight="700" fill="#B8AECF" text-anchor="start" >EARLY 5</text><text x="799" y="591" font-family="Arial, sans-serif" font-size="12" font-weight="700" fill="#B8AECF" text-anchor="start" >CORNERS</text><text x="933" y="591" font-family="Arial, sans-serif" font-size="12" font-weight="700" fill="#B8AECF" text-anchor="start" >LINES</text><text x="1040" y="591" font-family="Arial, sans-serif" font-size="12" font-weight="700" fill="#B8AECF" text-anchor="start" >FULL HOUSE</text><text x="58" y="683" font-family="Arial, sans-serif" font-size="16" font-weight="500" fill="#B8AECF" text-anchor="start" >A real table. A little friendly competition.</text></svg>