<svg xmlns="http://www.w3.org/2000/svg" width="1280" height="720" viewBox="0 0 1280 720"><title>ready</title><defs>
<radialGradient id="coral" cx=".28" cy=".18" r=".95"><stop stop-color="#FFCF97"/><stop offset=".6" stop-color="#FC8464"/><stop offset="1" stop-color="#CD4A63"/></radialGradient>
<radialGradient id="mint" cx=".3" cy=".2" r=".95"><stop stop-color="#DCF7BA"/><stop offset=".65" stop-color="#89D6BE"/><stop offset="1" stop-color="#42A69D"/></radialGradient>
<radialGradient id="gold" cx=".3" cy=".2" r=".95"><stop stop-color="#FFF0B3"/><stop offset=".65" stop-color="#FFD477"/><stop offset="1" stop-color="#DF9952"/></radialGradient>
</defs><rect x="0" y="0" width="1280" height="720" rx="0" fill="#19172F" stroke="none" stroke-width="1" /><path d="M780 0 Q510 250 1280 620 L1280 0Z" fill="#272341"/><path d="M0 630 Q600 500 1280 610 V720 H0Z" fill="#272341" opacity=".4"/><path d="M54 351 Q56 358 63 360 Q56 362 54 369 Q52 362 45 360 Q52 358 54 351Z" fill="#383253"/><path d="M732 101 Q734 107 740 109 Q734 111 732 117 Q730 111 724 109 Q730 107 732 101Z" fill="#383253"/><path d="M1190 171 Q1192 182 1203 184 Q1192 186 1190 197 Q1188 186 1177 184 Q1188 182 1190 171Z" fill="#383253"/><path d="M598 538 Q600 544 606 546 Q600 548 598 554 Q596 548 590 546 Q596 544 598 538Z" fill="#383253"/><path d="M85 648 Q87 655 94 657 Q87 659 85 666 Q83 659 76 657 Q83 655 85 648Z" fill="#383253"/><circle cx="67" cy="43" r="19" fill="#FF8665" /><text x="67" y="50" font-family="Arial, sans-serif" font-size="22" font-weight="900" fill="#24192E" text-anchor="middle" >T</text><text x="97" y="51" font-family="Arial, sans-serif" font-size="27" font-weight="900" fill="#FFF9EF" text-anchor="start" >tambola</text><text x="98" y="69" font-family="Arial, sans-serif" font-size="8" font-weight="700" fill="#B8AECF" text-anchor="start" >T O G E T H E R</text><g id="Your-profile" data-action="profile" role="button" tabindex="0" aria-label="Your profile"><circle cx="897" cy="41" r="22" fill="#9FE2CB" /><circle cx="891.94" cy="39.9" r="2.5" fill="#25323D" /><circle cx="902.06" cy="39.9" r="2.5" fill="#25323D" /><path d="M891.72 46.28 Q897 50.46 902.28 46.28" fill="none" stroke="#25323D" stroke-width="3" stroke-linecap="round"/><text x="897" y="87" font-family="Arial, sans-serif" font-size="14" font-weight="700" fill="#B8AECF" text-anchor="middle" ></text></g><g id="Wallet" data-action="profile" role="button" tabindex="0" aria-label="Wallet"><rect x="942" y="20" width="188" height="36" rx="18" fill="#383253" stroke="none" stroke-width="1" /><text x="1036.0" y="44" font-family="Arial, sans-serif" font-size="15" font-weight="700" fill="#FFDA7B" text-anchor="middle" >1,200  coins</text></g><g id="Sound" data-action="sound" role="button" tabindex="0" aria-label="Sound"><rect x="1150" y="20" width="48" height="40" rx="15" fill="#383253" stroke="none" stroke-width="1" /><text x="1174" y="47" font-family="Arial, sans-serif" font-size="27" font-weight="600" fill="#FFF9EF" text-anchor="middle" >♪</text></g><g id="Settings" data-action="settings" role="button" tabindex="0" aria-label="Settings"><rect x="1212" y="20" width="40" height="40" rx="15" fill="#383253" stroke="none" stroke-width="1" /><text x="1232" y="47" font-family="Arial, sans-serif" font-size="24" font-weight="900" fill="#FFF9EF" text-anchor="middle" >···</text></g><text x="640" y="143" font-family="Arial, sans-serif" font-size="40" font-weight="900" fill="#FFF9EF" text-anchor="middle" >Your table is filling up</text><text x="640" y="187" font-family="Arial, sans-serif" font-size="22" font-weight="600" fill="#B8AECF" text-anchor="middle" >3 tickets in hand</text><circle cx="640" cy="317" r="101" fill="#383253" /><path id="lobby-ring" d="M 640 216 A 101 101 0 1 1 552.531 266.500" fill="none" stroke="#FF8665" stroke-width="7" stroke-linecap="round"/><circle cx="640" cy="317" r="83" fill="#272341" /><text x="640" y="336" font-family="Arial, sans-serif" font-size="69" font-weight="900" fill="#FFDA7B" text-anchor="middle" id="countdown-value">10</text><text x="640" y="372" font-family="Arial, sans-serif" font-size="13" font-weight="700" fill="#B8AECF" text-anchor="middle" >STARTS IN</text><g id="seat-0" visibility="hidden"><circle cx="278" cy="321" r="40" fill="none" stroke="#383253" stroke-width="3" stroke-dasharray="7 6"/><text x="278" y="330" font-family="Arial, sans-serif" font-size="29" font-weight="600" fill="#B8AECF" text-anchor="middle" >+</text><text x="278" y="383" font-family="Arial, sans-serif" font-size="14" font-weight="600" fill="#B8AECF" text-anchor="middle" >Joining…</text></g><g id="arrival-0" class="seat-arrival" visibility="visible"><circle cx="278" cy="321" r="38" fill="#9FE2CB" /><circle cx="269.26" cy="319.1" r="2.5" fill="#25323D" /><circle cx="286.74" cy="319.1" r="2.5" fill="#25323D" /><path d="M268.88 330.12 Q278 337.34 287.12 330.12" fill="none" stroke="#25323D" stroke-width="3" stroke-linecap="round"/><text x="278" y="383" font-family="Arial, sans-serif" font-size="14" font-weight="700" fill="#B8AECF" text-anchor="middle" >YOU</text></g><g id="seat-1" visibility="hidden"><circle cx="422" cy="321" r="40" fill="none" stroke="#383253" stroke-width="3" stroke-dasharray="7 6"/><text x="422" y="330" font-family="Arial, sans-serif" font-size="29" font-weight="600" fill="#B8AECF" text-anchor="middle" >+</text><text x="422" y="383" font-family="Arial, sans-serif" font-size="14" font-weight="600" fill="#B8AECF" text-anchor="middle" >Joining…</text></g><g id="arrival-1" class="seat-arrival" visibility="visible"><circle cx="422" cy="321" r="38" fill="#FF8665" /><circle cx="413.26" cy="319.1" r="2.5" fill="#25323D" /><circle cx="430.74" cy="319.1" r="2.5" fill="#25323D" /><path d="M412.88 330.12 Q422 337.34 431.12 330.12" fill="none" stroke="#25323D" stroke-width="3" stroke-linecap="round"/><text x="422" y="383" font-family="Arial, sans-serif" font-size="14" font-weight="700" fill="#B8AECF" text-anchor="middle" >ChaiChamp</text></g><g id="seat-2" visibility="visible"><circle cx="858" cy="321" r="40" fill="none" stroke="#383253" stroke-width="3" stroke-dasharray="7 6"/><text x="858" y="330" font-family="Arial, sans-serif" font-size="29" font-weight="600" fill="#B8AECF" text-anchor="middle" >+</text><text x="858" y="383" font-family="Arial, sans-serif" font-size="14" font-weight="600" fill="#B8AECF" text-anchor="middle" >Joining…</text></g><g id="arrival-2" class="seat-arrival" visibility="hidden"><circle cx="858" cy="321" r="38" fill="#BCADF5" /><circle cx="849.26" cy="319.1" r="2.5" fill="#25323D" /><circle cx="866.74" cy="319.1" r="2.5" fill="#25323D" /><path d="M848.88 330.12 Q858 337.34 867.12 330.12" fill="none" stroke="#25323D" stroke-width="3" stroke-linecap="round"/><text x="858" y="383" font-family="Arial, sans-serif" font-size="14" font-weight="700" fill="#B8AECF" text-anchor="middle" >NeonNinja</text><text x="858" y="406" font-family="Arial, sans-serif" font-size="11" font-weight="600" fill="#B8AECF" text-anchor="middle" >COMPUTER</text></g><g id="seat-3" visibility="visible"><circle cx="1002" cy="321" r="40" fill="none" stroke="#383253" stroke-width="3" stroke-dasharray="7 6"/><text x="1002" y="330" font-family="Arial, sans-serif" font-size="29" font-weight="600" fill="#B8AECF" text-anchor="middle" >+</text><text x="1002" y="383" font-family="Arial, sans-serif" font-size="14" font-weight="600" fill="#B8AECF" text-anchor="middle" >Joining…</text></g><g id="arrival-3" class="seat-arrival" visibility="hidden"><circle cx="1002" cy="321" r="38" fill="#FFDA7B" /><circle cx="993.26" cy="319.1" r="2.5" fill="#25323D" /><circle cx="1010.74" cy="319.1" r="2.5" fill="#25323D" /><path d="M992.88 330.12 Q1002 337.34 1011.12 330.12" fill="none" stroke="#25323D" stroke-width="3" stroke-linecap="round"/><text x="1002" y="383" font-family="Arial, sans-serif" font-size="14" font-weight="700" fill="#B8AECF" text-anchor="middle" >LuckyMango</text><text x="1002" y="406" font-family="Arial, sans-serif" font-size="11" font-weight="600" fill="#B8AECF" text-anchor="middle" >COMPUTER</text></g><rect x="325" y="466" width="630" height="87" rx="25" fill="#272341" stroke="none" stroke-width="1" /><text x="362" y="498" font-family="Arial, sans-serif" font-size="13" font-weight="700" fill="#B8AECF" text-anchor="start" >ROUND POOL</text><circle cx="381" cy="529" r="16" fill="#AA7426" /><circle cx="381" cy="526" r="16" fill="#FFDC7C" /><circle cx="381" cy="526" r="11.68" fill="none" stroke="#DDA743" stroke-width="2"/><text x="381" y="531.12" font-family="Arial, sans-serif" font-size="14" font-weight="900" fill="#B37D24" text-anchor="middle" >T</text><text x="410" y="534" font-family="Arial, sans-serif" font-size="29" font-weight="900" fill="#FFDA7B" text-anchor="start" id="round-pool">1,200</text><text x="920" y="502" font-family="Arial, sans-serif" font-size="24" font-weight="800" fill="#FFF9EF" text-anchor="end" id="prize-count">7 prizes</text><text x="920" y="533" font-family="Arial, sans-serif" font-size="16" font-weight="500" fill="#B8AECF" text-anchor="end" >Sales close before the first call</text><text x="640" y="613" font-family="Arial, sans-serif" font-size="23" font-weight="700" fill="#9FE2CB" text-anchor="middle" id="join-status">ChaiChamp joined your table</text><g id="Leave-table" data-action="lobby" role="button" tabindex="0" aria-label="Leave table"><text x="85" y="641" font-family="Arial, sans-serif" font-size="17" font-weight="600" fill="#B8AECF" text-anchor="start" >← Leave table</text></g></svg>